<svg width="195" height="47" viewBox="0 0 195 47" fill="none" xmlns="http://www.w3.org/2000/svg">
<path d="M19.3962 8.40259C13.6253 8.40259 9.8751 10.7146 7.59951 15.1019H7.47207V12.3712C7.47207 10.4051 5.87005 8.8213 3.90394 8.8213C1.93782 8.8213 0.354004 10.4051 0.354004 12.3712V42.573C0.354004 44.5391 1.93782 46.1411 3.90394 46.1411H4.24983C6.21594 46.1411 7.81796 44.5391 7.81796 42.573V24.5866C7.81796 18.7065 11.1858 14.7925 16.8111 14.7925C22.2726 14.7925 24.894 17.9601 24.894 23.6218V42.573C24.894 44.5391 26.4779 46.1411 28.444 46.1411H28.7899C30.756 46.1411 32.3398 44.5391 32.3398 42.573V22.22C32.3398 13.6274 27.643 8.40259 19.3962 8.40259Z" fill="white"/>
<path d="M55.3688 8.32983C44.9375 8.32983 38.1289 15.9394 38.1289 27.6087C38.1289 39.2962 44.8647 46.5781 55.6783 46.5781C62.3777 46.5781 67.9119 43.6107 70.406 38.9867C71.3344 37.2936 70.0601 35.2001 68.1304 35.2001H66.2371C65.2904 35.2001 64.4712 35.7462 63.9797 36.5654C62.5415 39.0413 59.5195 40.5341 55.8239 40.5341C49.7071 40.5341 45.6475 36.2742 45.6475 29.8115V29.3746H69.4957C70.9157 29.3746 72.0808 28.2095 72.0808 26.7895V26.7531C72.0808 15.4479 65.6181 8.32983 55.3688 8.32983ZM45.6839 24.077C46.1026 18.3425 49.9802 14.4102 55.3506 14.4102C60.7756 14.4102 64.453 18.2696 64.6169 24.077H45.6839Z" fill="white"/>
<path d="M106.797 33.5981H104.813C103.739 33.5981 102.811 34.2716 102.41 35.2729C101.118 38.568 98.1683 40.3338 93.9812 40.3338C87.9918 40.3338 83.9504 35.5096 83.9504 27.4813C83.9504 19.635 87.9372 14.6287 93.9448 14.6287C98.2776 14.6287 101.172 16.7769 102.355 19.8353C102.756 20.8547 103.684 21.5647 104.795 21.5647H106.779C108.509 21.5647 109.801 19.8717 109.237 18.2332C107.325 12.608 101.864 8.32983 93.872 8.32983C83.3314 8.32983 76.3772 15.8666 76.3772 27.4813C76.3772 39.2962 83.3496 46.5781 93.9448 46.5781C101.536 46.5781 107.18 42.8643 109.255 36.9842C109.838 35.3275 108.563 33.5981 106.797 33.5981Z" fill="white"/>
<path d="M129.153 40.2792C129.025 40.261 128.88 40.2428 128.752 40.2428C126.295 39.9515 125.148 38.4223 125.148 35.546V14.7015H129.353C130.991 14.7015 132.302 13.3726 132.302 11.7523C132.302 10.1321 130.991 8.82136 129.353 8.82136H125.148V4.14273C125.148 3.12326 124.729 2.19482 124.055 1.52124C123.382 0.847665 122.472 0.428955 121.434 0.428955C119.395 0.428955 117.738 2.10379 117.738 4.14273V8.82136H115.517C113.897 8.82136 112.568 10.1321 112.568 11.7523C112.568 13.3726 113.897 14.7015 115.517 14.7015H117.738V36.3106C117.738 43.5197 120.615 46.3778 128.079 46.3778C128.097 46.3778 128.115 46.3778 128.115 46.3778C128.971 46.3778 129.754 46.123 130.409 45.6678C130.427 45.6678 130.445 45.6496 130.445 45.6496C131.21 45.1035 131.72 44.2115 131.72 43.2102C131.72 41.7174 130.609 40.4613 129.153 40.2792Z" fill="white"/>
<path d="M153.365 8.32983C147.54 8.32983 142.734 10.6965 140.276 14.3556C139.875 14.9746 139.675 15.6482 139.675 16.3035C139.675 18.124 141.132 19.817 143.189 19.817C144.39 19.817 145.537 19.1799 146.101 18.124C147.303 15.8666 149.87 14.4831 153.165 14.4831C158.153 14.4831 160.993 16.8315 160.993 21.0914V21.5465C160.993 22.9119 159.937 24.0406 158.572 24.1134L150.926 24.5503C141.714 25.1328 136.671 28.9194 136.671 35.455C136.671 42.1179 141.823 46.5053 149.287 46.5053C154.366 46.5053 159.009 43.9748 161.066 39.9151H161.23V42.573C161.23 43.5561 161.63 44.4481 162.267 45.1035C162.923 45.7407 163.815 46.1412 164.798 46.1412C166.764 46.1412 168.348 44.5391 168.348 42.573V20.5452C168.348 13.1541 162.468 8.32983 153.365 8.32983ZM160.993 32.1235C160.993 37.0206 156.806 40.5705 151.272 40.5705C146.975 40.5705 144.19 38.5134 144.19 35.3093C144.19 32.0143 146.848 30.121 151.927 29.8115L160.993 29.1925V32.1235Z" fill="white"/>
<path d="M192.105 8.43896C187.699 8.43896 184.277 10.9512 183.094 15.1019H182.966V12.3712C182.966 10.4051 181.364 8.82127 179.416 8.82127C177.45 8.82127 175.848 10.4051 175.848 12.3712V42.4091C175.848 43.4286 176.267 44.3752 176.94 45.0488C177.614 45.7224 178.542 46.1411 179.58 46.1411C181.637 46.1411 183.312 44.4662 183.312 42.4091V23.8766C183.312 18.6154 186.407 15.2111 191.322 15.2111C191.522 15.2111 191.741 15.2111 191.941 15.2293C193.47 15.284 194.708 14.0278 194.708 12.4986V11.0605C194.708 9.62228 193.543 8.43896 192.105 8.43896Z" fill="white"/>
<path d="M131.72 43.2103C131.72 44.2116 131.21 45.1036 130.445 45.6497C130.445 45.6497 130.427 45.6679 130.409 45.6679C129.936 45.9956 129.371 46.1777 128.752 46.1777C127.096 46.1777 125.767 44.8487 125.767 43.2103C125.767 41.5719 127.096 40.2429 128.752 40.2429C128.88 40.2429 129.026 40.2611 129.153 40.2793C130.609 40.4614 131.72 41.7175 131.72 43.2103Z" fill="white"/>
</svg>
